<?xml version="1.0" encoding="utf-8"?>
<!-- Generator: Adobe Illustrator 16.0.0, SVG Export Plug-In . SVG Version: 6.00 Build 0)  -->
<!DOCTYPE svg PUBLIC "-//W3C//DTD SVG 1.1//EN" "http://www.w3.org/Graphics/SVG/1.1/DTD/svg11.dtd">
<svg version="1.1" xmlns="http://www.w3.org/2000/svg" xmlns:xlink="http://www.w3.org/1999/xlink" x="0px" y="0px"
	 width="623.969px" height="634.669px" viewBox="0 0 623.969 634.669" enable-background="new 0 0 623.969 634.669"
	 xml:space="preserve">
<g id="Layer_1_copy">
	<path fill="#FFFFFF" d="M276.016,608.829c0,0-20.117-215.553-19.176-251.201l-2.941-5.131c0,0-55.576,30.336-139,17.712
		l-4.948-1.493c0,0,53.948-28.773,26.948-97.773c0,0,128.878,20.779,161.412,0.057s-1.596-2.419-1.596-2.419
		s45.637,21.657,47.712,29.362c0,0,32.678,38,96.805-30l-1.768-6.062c0,0,130.435,46.011,171.435,146.536
		c0,0-18.131,89.174-54.565,114.35l-4.435,6.176c0,0-28.991,1.892-57.666-26.874c-1.444-1.448-2.888-2.975-4.326-4.583
		c-30.008-33.543,2.882,3.135,2.882,3.135s28.278-71.756,44.694-83.217s0,0,0,0l-43.25-14.303c0,0-42.365,129.475,14.15,213.658
		s0,0,0,0S368.133,666.716,276.016,608.829"/>
	<path stroke="#FFFFFF" stroke-miterlimit="10" d="M613.199,394.601c-13.652-19.787-27.797-39.162-44.174-56.781
		c-13.881-14.932-28.767-28.724-45.845-40.117c-25.069-16.722-51.644-30.303-80.093-40.223c-3.096-1.079-3.266-1.86-1.203-4.32
		c4.651-5.548,9.228-11.16,13.871-16.715c1.55-1.856,2.886-3.777,5.857-3.904c8.341-0.355,14.749-4.442,20.099-10.72
		c7.866-9.231,10.377-24.335,4.295-33.866c-2.031-3.184-1.439-5.451,0.095-8.403c1.074-2.068,2.094-4.151,3.08-6.243
		c0.085-0.139,0.167-0.278,0.252-0.417c1.424-2.33,2.912-4.623,4.29-6.978c1.253-2.143,2.883-3.969,4.721-5.628
		c2.369-2.137,5.225-3.75,7.291-6.205c1.396-1.658,2.733-3.38,3.916-5.186c0.96-1.462,1.654-3.09,2.462-4.646
		c0.446-0.861,0.922-1.712,1.317-2.596c0.504-1.123,0.943-2.274,1.403-3.417c0.7-1.742,1.48-3.461,2.064-5.241
		c0.498-1.515,0.771-3.103,1.133-4.66c0.367-1.578,0.756-3.153,1.071-4.742c0.445-2.239,0.842-4.488,1.238-6.736
		c0.13-0.742,0.121-1.513,0.302-2.24c0.581-2.337,1.055-4.691,0.905-7.108c-0.078-1.245-0.5-2.479-0.527-3.72
		c-0.035-1.608-0.636-3.065-1.141-4.524c-0.3-0.865-0.644-1.716-1.001-2.562c0.475-3.473,0.388-6.96-0.946-10.479
		c-3.856-10.173-9.171-19.519-16.097-27.932c-0.825-1.002-1.797-1.968-2.317-3.124c-5.645-12.525-14.379-22.571-24.858-31.235
		c-9.724-8.039-20.444-13.532-33.508-12.086c-7.123,0.789-14.18,2.185-21.386,3.326c-2.651-3.408-5.996-6.072-9.711-7.943
		c-1.584-1.069-3.25-2.017-4.936-2.805c-7.224-3.378-14.539-3.281-20.852,2.297c-0.093,0.082-0.18,0.17-0.271,0.252
		c-1.01,0.24-2.285,0.13-3.176-0.261c-10.238-4.495-20.906-7.199-32.088-6.641c-15.736,0.786-31.234,3.52-46.202,8.425
		c-15.7,5.146-23.648,16.598-22.708,32.585c-4.252,4.288-6.933,9.087-8.162,14.404c-13.537-0.539-26.315,3.689-38.582,10.382
		c-7.083,3.864-11.225,10.238-10.06,18.7c1.194,8.677,7.987,11.304,15.374,12.833c7.895,1.634,15.842,3.022,23.714,4.752
		c1.074,0.236,1.972,0.298,2.768,0.15c0.389,0.908,0.949,1.717,1.949,2.274c0.284,0.159,0.493,0.439,0.749,0.652
		c0.371,0.311,0.74,0.626,1.108,0.941c1.004,5.744,3.322,10.936,6.202,15.887c1.547,2.658,1.922,5.003,0.471,7.795
		c-1.228,2.365-2.176,4.896-3.049,7.421c-8.615,24.944-9.491,50.4-4.446,76.099c4.158,21.182,12.386,40.381,28.856,55.206
		c0.592,0.533,0.914,1.366,1.596,2.419c-2.156,0.349-3.797,0.693-5.455,0.869c-8.1,0.855-16.194,1.793-24.311,2.465
		c-15.15,1.253-30.299,2.708-45.479,3.41c-19.804,0.917-39.245-2.239-58.294-7.383c-10.303-2.782-20.329-6.606-30.445-10.06
		c-2.523-0.861-3.901-2.87-5.273-5.24c-2.044-3.531-4.539-7.063-7.621-9.674c-5.885-4.986-12.464-9.142-18.488-13.975
		c-6.973-5.594-11.674-12.739-10.869-22.03c0.454-5.234,2.085-10.413,3.584-15.498c2.162-7.332,4.555-14.574,4.055-22.38
		c-0.565-8.823-4.369-13.389-11.753-14.088c-18.861-1.787-33.648,6.231-39.554,25.904c-4.702,15.667-3.312,30.995,3.729,45.8
		c2.545,5.352,0.618,8.336-5.229,8.747c-6.333,0.444-12.676,0.948-18.959,1.828c-6.295,0.881-11.99,3.123-16.238,8.336
		c-7.513,9.222-6.541,21.803,0.783,31.362c3.947,5.151,3.97,5.133,0.531,10.677c-0.104,0.168-0.261,0.306-0.355,0.478
		c-4.565,8.319-5.418,19.059,3.376,25.823c1.414,1.087,2.792,2.296,4.372,3.071c2.784,1.366,2.373,2.883,1.088,5.208
		c-1.356,2.453-2.666,5.209-2.932,7.938c-1.07,10.982,4.885,18.727,12.899,24.998c10.906,8.535,23.652,12.148,37.355,12.896
		c5.343,0.293,10.677,0.891,15.992,1.537c13.079,1.59,26.105,4.07,39.227,4.748c16.958,0.875,34.019,0.756,50.911-1.617
		c11.368-1.598,22.792-3.154,33.955-5.746c12.827-2.977,25.39-7.084,38.075-10.676c1.477-0.418,2.996-0.684,4.852-1.1
		c0.07,1.463,0.159,2.428,0.156,3.393c-0.01,4.18-0.203,8.363-0.049,12.537c0.776,21.057,1.557,42.115,2.527,63.164
		c0.292,6.338,0.984,12.676,1.865,18.963c2.422,17.277,5.225,34.502,7.53,51.795c2.269,17.021,4.235,34.086,6.106,51.156
		c1.732,15.797,3.146,31.631,4.768,47.439c0.1,0.973,0.547,2.252,1.271,2.754c2.748,1.904,5.677,3.547,9.314,5.76
		c-1.305-23.449-5.57-45.842-7.748-68.928c0,0,130.045,72.344,135.954,58.344c2.52-5.969,6.058-20.18,9.547-36.234
		c-0.579,22.365-1.15,44.424-1.731,66.898c4.746-0.613,8.597-0.93,12.376-1.633c15.539-2.891,31.105-5.664,46.562-8.953
		c9.456-2.012,18.715-4.936,28.094-7.324c2.258-0.574,4.645-0.645,7.236-0.982c-4.139-9.775-8.131-19.209-12.358-29.193
		c1.923,0,2.996-0.012,4.07,0.002c14.524,0.203,29.051,0.342,43.572,0.672c2.747,0.061,4.376-0.996,5.849-3.139
		c5.229-7.604,8.468-16.119,11.496-24.727c0.393-1.115,0.237-2.578-0.086-3.766c-2.018-7.414-5.057-14.42-9.409-20.748
		c-1.392-2.023-0.829-2.936,0.536-4.49c3.727-4.238,7.594-8.428,10.741-13.084c11.54-17.074,20.78-35.438,29.292-54.158
		c6.766-14.881,12.999-29.973,17.343-45.801C618.926,409.108,618.285,401.972,613.199,394.601z M600.915,391.05
		c-3.315,15.836-11.071,29.502-21.102,41.973c-3.175,3.947-6.274,8.086-10.066,11.381c-9.247,8.031-18.572,16.039-28.437,23.279
		c-12.249,8.99-25.069,17.205-37.657,25.732c-1.121,0.76-2.352,1.357-3.553,2.045c-1.681-2.42-2.064-4.473-0.781-7.07
		c8.308-16.824,16.188-33.865,24.804-50.527c3.722-7.199,8.861-13.664,13.36-20.459c0.589-0.891,1.193-1.771,2.067-3.066
		c-3.06-0.969-5.691-2.123-8.442-2.619c-10.646-1.92-20.485-6.207-30.324-10.373c-14.09-5.965-27.948-12.477-41.995-18.547
		c-2.298-0.994-5.057-0.924-7.602-1.348c-0.164,0.422-0.327,0.844-0.49,1.266c1.573,1.18,3.045,2.541,4.747,3.488
		c1.824,1.018,2.162,2.221,1.703,4.162c-4.25,17.99-8.489,35.98-12.604,54.002c-3.708,16.24-7.313,32.506-10.831,48.789
		c0.755,3.709,1.145,7.436,0.98,11.238c-0.06,1.371-0.189,2.754-0.399,4.146c-1.563,10.377-4.925,28.936-8.665,47.164
		c-9.546,1.641-19.15,3.1-28.785,3.764c-13.058,0.902-26.213,1.064-39.3,0.68c-12.809-0.377-25.402-2.91-37.795-6.254
		c-14.571-3.932-28.363-9.701-41.389-17.336c-1.267-0.742-2.029-1.553-2.436-2.789l-8.08-57.957l-1.424-12.234l-1.113-9.574
		c-0.006-0.064-0.012-0.127-0.018-0.191c-1.362-14.727-2.656-29.463-3.717-44.215c-0.593-8.221-0.088-16.523-0.719-24.74
		c-1.147-14.955,0.793-29.76,1.508-44.625c0.037-0.771,0.004-1.545,0.004-2.35c-7.486,1.014-8.799,0.666-9.31,8.584
		c-0.201,3.113-0.796,5.24-4.477,6.49c-14.148,4.801-28.64,8.092-43.301,10.68c-10.843,1.912-21.722,3.717-32.65,5.031
		c-17.711,2.131-35.507,2.15-53.304,1.062c-0.164-0.01-0.316-0.188-0.644-0.395c3.006-3.023,5.923-6.068,8.958-8.992
		c14.675-14.137,21.509-31.406,19.684-51.652c-0.861-9.551-3.148-18.974-4.811-28.451c-0.256-1.461-0.628-2.903-1.069-4.913
		c4.176,0.738,8.03,1.37,11.864,2.105c20.127,3.861,40.398,6.678,60.914,6.686c10.716,0.004,21.438-1.007,32.145-1.741
		c11.595-0.795,23.179-1.773,34.762-2.73c6.136-0.506,12.253-1.251,18.394-1.659c1.473-0.098,2.953-0.029,4.332,0.069
		c3.73-0.511,7.786,0.245,11.426,3.81c10.35,10.137,34.738,61.797,75.877,39.301c41.139-22.498,61.246-47.602,61.246-47.602
		s1.738-3.826,5.883-3.513c2.092,0.158,4.798,1.378,8.206,4.676c0.05-0.384,0.098-0.756,0.152-1.163
		c5.364,2.529,10.413,4.756,15.324,7.252c25.987,13.21,49.225,30.267,70.351,50.301c17.667,16.756,33.479,35.125,47.902,54.699
		C601.145,387.075,601.26,389.399,600.915,391.05z"/>
</g>
<g id="Layer_1">
	<g>
		<g>
			<g>
				<path fill-rule="evenodd" clip-rule="evenodd" d="M385.743,43.608c3.602,0.489,6.378,0.935,9.171,1.223
					c2.061,0.212,4.144,0.229,6.216,0.312c1.472,0.059,2.944,0.093,4.415,0.121c2.744,0.053,5.488,0.076,8.23,0.144
					c1.651,0.041,3.301,0.169,4.949,0.21c3.627,0.09,7.206,0.641,10.76,1.286c2.982,0.541,5.927,1.292,8.884,1.968
					c1.848,0.421,3.699,0.837,5.527,1.329c1.029,0.277,2.017,0.704,3.023,1.06c3.423,1.215,6.848,2.42,10.268,3.643
					c1.553,0.555,3.084,1.166,4.638,1.713c2.856,1.003,5.734,1.949,8.581,2.975c1.989,0.718,3.946,1.523,5.914,2.301
					c2.71,1.07,5.472,2.041,8.113,3.257c3.389,1.56,6.887,2.977,9.875,5.242c1.704,1.292,3.304,2.728,4.864,4.184
					c1.145,1.066,2.063,2.363,3.241,3.386c1.141,0.991,2.48,1.771,3.74,2.63c1.025,0.698,2.101,1.329,3.087,2.075
					c1.495,1.132,3.029,2.223,4.271,3.646c1.105,1.269,2.016,2.625,2.569,4.214c0.275,0.793,0.767,1.515,1.104,2.292
					c0.927,2.138,1.935,4.254,2.695,6.447c0.505,1.459,1.105,2.916,1.141,4.524c0.027,1.241,0.449,2.475,0.527,3.72
					c0.149,2.417-0.324,4.771-0.905,7.108c-0.181,0.727-0.172,1.498-0.302,2.24c-0.396,2.248-0.793,4.497-1.238,6.736
					c-0.315,1.589-0.704,3.164-1.071,4.742c-0.361,1.558-0.635,3.146-1.133,4.66c-0.584,1.78-1.364,3.499-2.064,5.241
					c-0.46,1.143-0.899,2.294-1.403,3.417c-0.396,0.884-0.871,1.735-1.317,2.596c-0.808,1.556-1.502,3.184-2.462,4.646
					c-1.183,1.805-2.521,3.527-3.916,5.186c-2.066,2.455-4.922,4.067-7.291,6.205c-1.838,1.659-3.468,3.486-4.721,5.628
					c-1.378,2.355-2.866,4.648-4.29,6.978c-1.302,2.131-2.567,4.281-3.872,6.41c-1.41,2.299-3.079,4.366-5.531,5.729
					c-0.266,0.147-0.558,0.432-0.622,0.703c-0.288,1.198-1.104,2.066-1.909,2.911c-0.325,0.341-0.925,0.552-1.423,0.601
					c-1.816,0.177-3.642,0.363-5.465,0.352c-1.872-0.011-3.697-0.412-5.482-1.054c-1.714-0.618-3.499-1.041-5.25-1.559
					c-3.429-1.012-6.694-2.424-9.953-3.857c-2.681-1.179-4.989-2.958-7.513-4.39c-1.886-1.071-3.681-2.3-5.595-3.32
					c-2.488-1.327-5.061-2.5-7.578-3.775c-0.751-0.379-1.445-0.867-2.156-1.317c-1.422-0.897-2.847-1.788-4.253-2.708
					c-2.108-1.382-4.217-2.767-6.294-4.194c-0.685-0.472-1.254-1.103-1.911-1.618c-0.467-0.365-0.966-0.715-1.498-0.976
					c-4.048-1.984-8.336-3.121-12.848-3.425c-2.729-0.184-5.46-0.371-8.191-0.509c-2.772-0.141-5.448-0.84-8.168-1.303
					c-1.287-0.219-2.586-0.377-3.879-0.573c-0.593-0.089-1.182-0.198-1.771-0.308c-1.773-0.327-3.55-0.638-5.316-0.995
					c-1.477-0.299-2.937-0.671-4.409-0.979c-1.803-0.376-3.611-0.736-5.423-1.072c-2.477-0.46-4.957-0.913-7.44-1.329
					c-3.275-0.548-6.367-1.664-9.446-2.833c-4.057-1.54-8.137-3.021-12.182-4.591c-3.986-1.549-7.957-3.143-11.907-4.781
					c-2.712-1.125-5.409-2.292-8.053-3.559c-4.331-2.077-8.633-4.212-12.908-6.394c-2.726-1.391-5.386-2.903-8.067-4.373
					c-2.324-1.274-4.466-2.797-6.52-4.452c-1.342-1.082-2.793-2.036-4.188-3.054c-2.309-1.684-4.603-3.39-6.923-5.057
					c-1.293-0.93-2.671-1.753-3.937-2.716c-1.371-1.043-2.658-2.192-3.978-3.297c-0.256-0.213-0.465-0.494-0.749-0.652
					c-1.622-0.904-2.093-2.468-2.537-4.048c-0.135-0.479-0.263-0.968-0.321-1.459c-0.22-1.82,1.022-3.342,3.068-3.777
					c0.391-0.083,0.793-0.117,1.191-0.149c0.755-0.062,0.958-0.375,0.592-1.019c-0.293-0.512-0.657-0.984-0.971-1.485
					c-1.219-1.949-1.975-3.976-1.725-6.333c0.221-2.088,0.471-4.163,1.684-5.92c0.867-1.256,1.883-2.474,3.058-3.456
					c2.397-2.007,4.944-3.846,7.435-5.747c1.24-0.946,2.402-1.943,3.398-3.16c2.526-3.086,5.305-5.944,8.493-8.417
					c2.737-2.123,5.765-3.68,9.071-4.807c2.556-0.871,5.045-1.926,7.593-2.823c1.585-0.558,3.229-0.964,4.841-1.454
					c2.438-0.74,4.873-1.492,7.312-2.238c0.485-0.149,0.965-0.327,1.464-0.438c2.929-0.647,5.851-1.325,8.794-1.899
					c2.09-0.409,4.2-0.761,6.32-0.973c2.361-0.237,4.743-0.269,7.115-0.429c0.842-0.057,1.669-0.284,2.511-0.345
					c3.6-0.262,7.199-0.565,10.804-0.716c5.679-0.238,11.362-0.422,17.047-0.513c2.202-0.035,4.411,0.262,6.616,0.375
					C381.973,43.467,384.269,43.546,385.743,43.608z"/>
			</g>
			<path fill="none" d="M425.628,555.706c1.51-0.258,3.019-0.521,4.525-0.787c14.8-2.615,29.212-6.812,43.378-11.863
				c2.005-0.715,2.549-1.537,2.44-3.584c-0.537-10.123-0.979-20.252-1.313-30.385c-0.166-5.057-0.028-10.125-0.028-15.5
				c-1.084,0.344-1.996,0.672-2.93,0.924c-12.33,3.318-24.576,7.025-37.008,9.885c-0.06,1.371-0.189,2.754-0.399,4.146
				C432.73,518.919,429.369,537.478,425.628,555.706z"/>
			<path fill="none" d="M267.002,476.237c2.904,18.814,5.839,37.625,8.665,56.451c0.06,0.398,0.148,0.752,0.257,1.082l-8.08-57.957
				C267.563,475.954,267.283,476.097,267.002,476.237z"/>
			<path fill="none" d="M391.155,321.169c41.139-22.498,61.246-47.602,61.246-47.602s1.738-3.826,5.883-3.513
				c-0.125-0.178-0.265-0.314-0.409-0.377c-7.439-3.243-14.942-6.341-22.783-9.623c-1.181,2.851-2.391,5.244-3.178,7.768
				c-2.805,8.994-7.364,17.082-13.975,23.634c-13.809,13.686-30.773,20.36-50.183,19.709c-15.058-0.504-27.612-6.261-35.35-20.095
				c-0.621-1.109-1.371-2.479-2.416-2.961c-4.811-2.219-9.748-4.166-14.713-6.241C325.627,292.005,350.016,343.665,391.155,321.169z
				"/>
			<path d="M569.025,337.819c-13.881-14.932-28.767-28.724-45.845-40.117c-25.069-16.722-51.644-30.303-80.093-40.223
				c-3.096-1.079-3.266-1.86-1.203-4.32c4.651-5.548,9.228-11.16,13.871-16.715c1.55-1.856,2.886-3.777,5.857-3.904
				c8.341-0.355,14.749-4.442,20.099-10.72c7.866-9.231,10.377-24.335,4.295-33.866c-2.031-3.184-1.439-5.451,0.095-8.403
				c10.656-20.505,17.07-42.167,17.426-65.437c0.124-8.1-0.236-16.294-3.639-23.629c-3.949-8.51-8.688-16.724-13.808-24.596
				c-3.813-5.864-8.477-11.264-15.25-14.246c-3.841-1.691-6.612-4.664-8.687-8.305c-2.013-3.533-4.078-7.037-6.121-10.553
				c-3.249-5.593-7.402-10.07-14.094-11.41c-2.617-0.524-5.218-1.187-7.858-1.526c-7.098-0.915-13.587-2.754-18.816-8.273
				c-2.8-2.954-6.432-5.422-10.135-7.153c-7.224-3.378-14.539-3.281-20.852,2.297c-3.399,3.003-6.482,6.396-9.483,9.81
				c-3.292,3.745-6.799,7.007-12.036,7.486c-5.146,0.471-10.297,0.917-15.456,1.187c-7.437,0.388-13.987,2.725-19.136,8.285
				c-3.91,4.223-7.725,8.534-11.602,12.788c-3.938,4.319-9.066,5.395-14.461,4.454c-5.238-0.914-9.98-4.741-6.69-11.635
				c0.769-1.61,1.464-3.258,2.121-4.917c0.517-1.306,0.923-2.656,1.521-4.405c-1.216,0.321-1.907,0.403-2.51,0.68
				c-2.604,1.195-5.311,2.236-7.752,3.711c-16.952,10.243-21.235,24.427-15.551,42.588c0.972,3.105,0.701,5.387-0.765,8.101
				c-3.523,6.525-5.089,13.452-3.859,20.95c0.967,5.892,3.332,11.197,6.273,16.254c1.547,2.658,1.922,5.003,0.471,7.795
				c-1.228,2.365-2.176,4.896-3.049,7.421c-8.615,24.944-9.491,50.4-4.446,76.099c4.158,21.182,12.386,40.381,28.856,55.206
				c0.592,0.533,0.914,1.366,1.596,2.419c-2.156,0.349-3.797,0.693-5.455,0.869c-8.1,0.855-16.194,1.793-24.311,2.465
				c-15.15,1.253-30.299,2.708-45.479,3.41c-19.804,0.917-39.245-2.239-58.294-7.383c-10.303-2.782-20.329-6.606-30.445-10.06
				c-2.523-0.861-3.901-2.87-5.273-5.24c-2.044-3.531-4.539-7.063-7.621-9.674c-5.885-4.986-12.464-9.142-18.488-13.975
				c-6.973-5.594-11.674-12.739-10.869-22.03c0.454-5.234,2.085-10.413,3.584-15.498c2.162-7.332,4.555-14.574,4.055-22.38
				c-0.565-8.823-4.369-13.389-11.753-14.088c-18.861-1.787-33.648,6.231-39.554,25.904c-4.702,15.667-3.312,30.995,3.729,45.8
				c2.545,5.352,0.618,8.336-5.229,8.747c-6.333,0.444-12.676,0.948-18.959,1.828c-6.295,0.881-11.99,3.123-16.238,8.336
				c-7.513,9.222-6.541,21.803,0.783,31.362c3.947,5.151,3.97,5.133,0.531,10.677c-0.104,0.168-0.261,0.306-0.355,0.478
				c-4.565,8.319-5.418,19.059,3.376,25.823c1.414,1.087,2.792,2.296,4.372,3.071c2.784,1.366,2.373,2.883,1.088,5.208
				c-1.356,2.453-2.666,5.209-2.932,7.938c-1.07,10.982,4.885,18.727,12.899,24.998c10.906,8.535,23.652,12.148,37.355,12.896
				c5.343,0.293,10.677,0.891,15.992,1.537c13.079,1.59,26.105,4.07,39.227,4.748c16.958,0.875,34.019,0.756,50.911-1.617
				c11.368-1.598,22.792-3.154,33.955-5.746c12.827-2.977,25.39-7.084,38.075-10.676c1.477-0.418,2.996-0.684,4.852-1.1
				c0.07,1.463,0.159,2.428,0.156,3.393c-0.01,4.18-0.203,8.363-0.049,12.537c0.776,21.057,1.557,42.115,2.527,63.164
				c0.292,6.338,0.984,12.676,1.865,18.963c2.422,17.277,5.225,34.502,7.53,51.795c2.269,17.021,4.235,34.086,6.106,51.156
				c1.732,15.797,3.146,31.631,4.768,47.439c0.1,0.973,0.547,2.252,1.271,2.754c2.748,1.904,5.677,3.547,9.314,5.76
				c-1.305-23.449-5.57-45.842-7.748-68.928l-1.658-11.891c-0.108-0.33-0.197-0.684-0.257-1.082
				c-2.826-18.826-5.761-37.637-8.665-56.451c0.28-0.141,0.561-0.283,0.842-0.424l-1.424-12.234
				c-0.184-0.473-0.312-0.945-0.355-1.398c-0.256-2.725-0.506-5.451-0.758-8.176l-0.02-0.166c0,0,0-0.01,0.002-0.025
				c-1.362-14.727-2.656-29.463-3.717-44.215c-0.593-8.221-0.088-16.523-0.719-24.74c-1.147-14.955,0.793-29.76,1.508-44.625
				c0.037-0.771,0.004-1.545,0.004-2.35c-7.486,1.014-8.799,0.666-9.31,8.584c-0.201,3.113-0.796,5.24-4.477,6.49
				c-14.148,4.801-28.64,8.092-43.301,10.68c-10.843,1.912-21.722,3.717-32.65,5.031c-17.711,2.131-35.507,2.15-53.304,1.062
				c-0.164-0.01-0.316-0.188-0.644-0.395c3.006-3.023,5.923-6.068,8.958-8.992c14.675-14.137,21.509-31.406,19.684-51.652
				c-0.861-9.551-3.148-18.974-4.811-28.451c-0.256-1.461-0.628-2.903-1.069-4.913c4.176,0.738,8.03,1.37,11.864,2.105
				c20.127,3.861,40.398,6.678,60.914,6.686c10.716,0.004,21.438-1.007,32.145-1.741c11.595-0.795,23.179-1.773,34.762-2.73
				c6.136-0.506,12.253-1.251,18.394-1.659c1.473-0.098,2.953-0.029,4.332,0.069c3.73-0.511,7.786,0.245,11.426,3.81
				c4.965,2.076,9.902,4.022,14.713,6.241c1.045,0.481,1.795,1.852,2.416,2.961c7.737,13.834,20.292,19.591,35.35,20.095
				c19.409,0.65,36.374-6.023,50.183-19.709c6.61-6.552,11.17-14.641,13.975-23.634c0.787-2.524,1.997-4.917,3.178-7.768
				c7.841,3.282,15.344,6.38,22.783,9.623c0.145,0.063,0.284,0.199,0.409,0.377c2.092,0.158,4.798,1.378,8.206,4.676
				c0.05-0.384,0.098-0.756,0.152-1.163c5.364,2.529,10.413,4.756,15.324,7.252c25.987,13.21,49.225,30.267,70.351,50.301
				c17.667,16.756,33.479,35.125,47.902,54.699c0.926,1.256,1.041,3.58,0.695,5.23c-3.315,15.836-11.071,29.502-21.102,41.973
				c-3.175,3.947-6.274,8.086-10.066,11.381c-9.247,8.031-18.572,16.039-28.437,23.279c-12.249,8.99-25.069,17.205-37.657,25.732
				c-1.121,0.76-2.352,1.357-3.553,2.045c-1.681-2.42-2.064-4.473-0.781-7.07c8.308-16.824,16.188-33.865,24.804-50.527
				c3.722-7.199,8.861-13.664,13.36-20.459c0.589-0.891,1.193-1.771,2.067-3.066c-3.06-0.969-5.691-2.123-8.442-2.619
				c-10.646-1.92-20.485-6.207-30.324-10.373c-14.09-5.965-27.948-12.477-41.995-18.547c-2.298-0.994-5.057-0.924-7.602-1.348
				c-0.164,0.422-0.327,0.844-0.49,1.266c1.573,1.18,3.045,2.541,4.747,3.488c1.824,1.018,2.162,2.221,1.703,4.162
				c-4.25,17.99-8.489,35.98-12.604,54.002c-3.708,16.24-7.313,32.506-10.831,48.789c0.755,3.709,1.145,7.436,0.98,11.238
				c12.432-2.859,24.678-6.566,37.008-9.885c0.934-0.252,1.846-0.58,2.93-0.924c0,5.375-0.138,10.443,0.028,15.5
				c0.334,10.133,0.776,20.262,1.313,30.385c0.108,2.047-0.436,2.869-2.44,3.584c-14.166,5.051-28.578,9.248-43.378,11.863
				c-1.507,0.266-3.016,0.529-4.525,0.787c-0.835,4.07-1.688,8.123-2.545,12.064c-0.579,22.365-1.15,44.424-1.731,66.898
				c4.746-0.613,8.597-0.93,12.376-1.633c15.539-2.891,31.105-5.664,46.562-8.953c9.456-2.012,18.715-4.936,28.094-7.324
				c2.258-0.574,4.645-0.645,7.236-0.982c-4.139-9.775-8.131-19.209-12.358-29.193c1.923,0,2.996-0.012,4.07,0.002
				c14.524,0.203,29.051,0.342,43.572,0.672c2.747,0.061,4.376-0.996,5.849-3.139c5.229-7.604,8.468-16.119,11.496-24.727
				c0.393-1.115,0.237-2.578-0.086-3.766c-2.018-7.414-5.057-14.42-9.409-20.748c-1.392-2.023-0.829-2.936,0.536-4.49
				c3.727-4.238,7.594-8.428,10.741-13.084c11.54-17.074,20.78-35.438,29.292-54.158c6.766-14.881,12.999-29.973,17.343-45.801
				c2.261-8.236,1.619-15.373-3.467-22.744C599.546,374.813,585.402,355.438,569.025,337.819z M14.157,261.53
				c1.13-7.943,7.336-13.863,16.215-15.058c10.052-1.352,20.188-2.362,30.286-0.714c11.405,1.861,21.539,6.8,30.49,14.05
				c4.444,3.6,5.783,8.639,5.817,14.229c-0.348,1.939-0.449,3.966-1.092,5.803c-1.75,4.997-4.603,6.562-9.598,4.997
				c-4.813-1.509-9.435-3.62-14.23-5.195c-10.926-3.589-22.09-3.277-33.285-1.598c-5.387,0.808-10.749,1.791-16.138,2.584
				c-0.738,0.109-1.931-0.163-2.302-0.689C16.438,274.434,13.143,268.662,14.157,261.53z M22.875,313.48
				c-5.282-6.785-5.711-14.485-2.942-22.265c0.66-1.854,3.16-3.69,5.188-4.311c8.135-2.488,16.579-2.814,25.053-2.578
				c14.653,0.477,28.416,4.113,40.905,11.919c2.475,1.547,4.727,3.685,6.568,5.965c4.014,4.971,4.124,12.375,0.406,17.544
				c-0.612,0.851-2.261,1.535-3.312,1.396c-5.276-0.699-10.586-1.388-15.749-2.643c-16.312-3.963-32.667-5.956-49.259-1.967
				C26.497,317.32,24.493,315.557,22.875,313.48z M26.487,338.081c-2.506-8.771,1.79-15.477,11.076-16.543
				c5.825-0.67,11.878-0.123,17.751,0.551c10.054,1.156,19.965,3.193,29.41,7.018c1.924,0.779,3.855,1.59,5.667,2.596
				c5.422,3.012,6.224,7.049,2.355,11.951c-2.748,3.482-6.425,5.697-10.749,6.445c-5.738,0.994-11.541,1.617-17.316,2.398
				c-9.703-0.814-19.343-0.961-28.437-4.736C31.696,345.872,27.942,343.177,26.487,338.081z M79.958,363.681
				c-8.759,0.609-17.499-0.01-26.024-2.291c-2.231-0.598-4.31-1.762-6.459-2.666c0.049-0.277,0.099-0.555,0.147-0.832
				c2.106-0.141,4.209-0.352,6.317-0.412c8.944-0.26,17.929-0.041,26.817-0.873c5.131-0.48,10.411-1.98,15.082-4.174
				c8.133-3.818,12.749-12.631,6.523-22.42c-1.749-2.75-1.642-4.547,0.542-6.586c0.143-0.135,0.248-0.311,0.364-0.473
				c6.252-8.642,6.192-15.781-0.326-24.196c-1.934-2.497-4.094-4.816-6.108-7.168c0.066-0.202,0.066-0.329,0.127-0.374
				c5.393-3.979,9.264-8.845,8.54-16.005c-0.939-9.291-3.407-18.185-12.17-23.021c-9.27-5.117-19.08-9.25-28.623-13.878
				c-0.996-0.482-2.09-1.228-2.612-2.149c-4.901-8.652-9.458-17.464-11.032-27.456c-1.986-12.594-1.267-24.893,7.324-34.992
				c7.445-8.752,17.653-10.867,28.744-8.667c3.193,0.634,5.633,4.126,5.468,8.333c-0.158,4.045-0.828,8.096-1.574,12.087
				c-1.261,6.741-3.222,13.38-4.049,20.165c-1.195,9.807,1.086,18.901,8.479,25.957c4.808,4.589,10.488,8.312,15.018,13.137
				c10.541,11.229,18.451,23.919,18.581,40.042c0.055,6.732-2.467,12.792-5.599,18.611c-2.195,4.079-4.443,8.131-6.164,12.743
				c1.957-0.979,3.913-1.957,6.652-3.326c-0.812,5.37-1.271,10.158-2.293,14.822c-2.496,11.387-7.749,21.252-17.295,28.305
				C97.16,361.241,88.661,363.075,79.958,363.681z M142.085,303.858c3.972,28.811-9.201,49.262-32.134,64.858
				c-2.18,1.482-4.275,1.756-6.699,1.277c-2.413-0.475-4.845-0.848-7.94-1.383c18.534-8.656,27.175-24.055,32.684-41.861
				c1.988-6.425,2.997-12.938,1.844-19.676c-0.154-0.898,0.008-2.044,0.46-2.821c3.563-6.113,5.461-12.738,6.343-19.704
				c0.032-0.252,0.2-0.489,1.103-0.876C139.219,290.396,141.147,297.059,142.085,303.858z M282.114,47.912
				c0.988-1.542,2.309-2.87,3.647-4.508c0.824,2.395,1.243,4.47,2.203,6.254c4.917,9.143,18.993,11.57,27.904,4.513
				c5.123-4.058,9.618-8.901,14.47-13.31c2.424-2.202,4.979-4.265,7.533-6.317c5.657-4.544,11.874-5.074,18.531-2.536
				c2.226,0.849,4.544,1.451,6.778,2.278c3.995,1.479,7.303,0.388,9.847-2.803c4.089-5.131,7.967-10.43,12.027-15.584
				c1.461-1.856,2.999-3.743,4.835-5.194c4.229-3.341,8.61-2.072,12.809,0.224c1.911,1.045,3.845,2.184,5.453,3.63
				c7.509,6.753,16.141,11.12,26.089,12.944c10.565,1.937,17.812,8.454,23.059,17.379c3.681,6.262,8.289,11.45,14.068,15.937
				c7.802,6.058,12.119,14.874,16.466,23.507c7.424,14.742,7.569,30.23,4.565,46.024c-1.708,8.985-3.989,17.794-8.037,27.043
				c-3.124-17.825-14.596-29.048-27.38-39.576c2.508-2.116,4.921-3.846,6.953-5.944c2.678-2.763,5.346-5.619,7.495-8.79
				c3.112-4.589,1.98-9.597,0.139-14.314c-4.392-11.252-14.253-16.462-26.126-13.665c-4.321,1.018-8.434,2.896-12.688,4.234
				c-12.087,3.801-9.406,4.032-17.248-3.969c-2.284-2.329-4.328-4.947-6.161-7.65c-3.045-4.491-7.328-7.476-11.73-10.376
				c-3.799-2.502-7.63-2.367-11.52-0.2c-6.074,3.384-12.242,6.608-18.221,10.154c-4.432,2.628-8.377,2.415-12.672-0.395
				c-2.951-1.931-6.238-3.699-9.625-4.54c-6.692-1.661-12.01,1.842-16.502,6.211c-4.979,4.845-9.508,10.157-14.188,15.308
				c-4.729,5.203-10.025,9.28-17.373,10.019c-4.898,0.492-8.746-1.249-11.931-4.78C276.034,78.526,274.444,59.878,282.114,47.912z
				 M275.231,99.954c0.077-0.782,0.178-1.58,0.409-2.326c2.017-6.491,3.72-7.08,9.153-3.176c2.161,1.552,4.293,3.145,6.407,4.697
				c-3.714,6.506-7.276,12.748-10.958,19.195C277.096,112.515,274.575,106.68,275.231,99.954z M421.847,258.819
				c-4.617,3.875-9.628,7.279-14.396,10.978c-1.644,1.275-3.093,2.8-4.397,4.542c7.776,0.944,14.466-1.683,21.499-5.695
				c-1.966,5.46-3.851,10.057-7.399,13.801c-9.585,10.112-21.652,15.572-34.986,18.604c-6.175,1.405-12.394,1.519-18.591,0.018
				c-1.13-0.273-2.249-0.59-3.385-1.203c6.844-2.002,14.247-2.038,21.014-7.073c-2.041,0-3.254-0.073-4.456,0.011
				c-21.561,1.5-40.342-5.886-57.649-17.997c-19.413-13.583-31.593-32.372-39.083-54.491c-6.084-17.972-7.92-36.484-5.904-55.273
				c2.494-23.242,11.152-44.27,24.275-63.501c0.758-1.11,2.271-2.024,3.604-2.368c9.498-2.453,15.93-8.865,21.917-16.129
				c3.715-4.508,7.982-8.569,12.104-12.732c2.698-2.727,6.039-2.833,9.403-1.537c2.581,0.994,5.14,2.135,7.531,3.518
				c6.157,3.562,12.449,3.519,18.938,1.178c4.287-1.546,8.489-3.557,12.912-4.44c7.347-1.466,13.588,1.851,19.277,6.097
				c2.454,1.832,4.934,3.843,6.763,6.257c4.527,5.976,10.247,6.168,16.848,4.695c6.469-1.444,13.037-2.649,19.627-3.282
				c6.324-0.607,11.711,3.339,14.173,9.344c2.468,6.021,1.391,11.282-3.661,15.929c-2.546,2.343-5.502,4.239-8.27,6.342
				c-2.516,1.911-2.527,3.181-0.014,5.03c8.739,6.428,17.657,12.676,23.58,22.093c4.015,6.383,6.755,13.181,6.178,20.925
				c-7.248-14.736-15.208-28.748-30.004-37.502c-0.459,0.49-0.901,0.88-1.241,1.345c-0.346,0.473-0.591,1.019-1.096,1.919
				c3.105,3.065,6.198,6.258,9.442,9.292c7.789,7.283,14.082,15.68,18.696,25.271c1.523,3.168,2.433,6.632,3.195,10.191
				c-8.163-12.429-14.253-26.585-29.743-32.573c-1.281,3.029,0.277,5.064,2.16,6.822c2.318,2.165,4.978,3.974,7.235,6.194
				c7.309,7.19,12.457,15.918,17.518,25.136c-1.929,1.156-3.841,2.3-5.937,3.556c1.148,1.634,2.158,3.363,3.445,4.854
				c6.078,7.041,7.786,14.894,4.082,23.506c-3.95,9.184-11.085,14.646-21.092,15.022c-4.879,0.184-7.424,2.188-9.89,5.94
				C439.324,241.701,431.27,250.912,421.847,258.819z M499.997,408.417c4.448,1.449,8.544,2.789,12.642,4.121
				c4.605,1.498,9.2,3.027,13.823,4.469c2.427,0.756,2.882,1.783,1.359,3.854c-8.901,12.104-15.897,25.326-22.49,38.752
				c-5.358,10.914-10.366,22.004-15.354,33.094c-0.607,1.352-0.564,3.344-0.069,4.779c1.325,3.838-1.642,5.842-2.894,8.6
				C483.019,472.448,492.686,440.784,499.997,408.417z M558.536,558.884c0.249,8.361-3.608,15.328-9.502,20.723
				c-1.865,1.707-6.079,1.205-9.201,1.117c-10.422-0.297-20.836-0.846-31.25-1.344c-1.685-0.082-3.359-0.383-5.035-0.607
				c-4.364-0.584-7.342-2.719-9.089-6.982c-5.104-12.447-8.361-25.297-8.854-38.754c-0.232-6.369,2.367-12.02,5.534-17.387
				c1.458-2.475,3.047-4.871,4.453-7.107c6.797,6.072,13.055,12.328,20.006,17.684c7.155,5.514,16.485,5.02,25.076,7.281
				c-2.077,2.693-4.152,5.098-5.903,7.719c-3.311,4.955-5.814,10.223-4.526,16.453c0.231,1.119,0.597,2.406,1.348,3.186
				c3.022,3.135,6.148,6.182,9.414,9.061c0.615,0.543,2.258,0.572,3.058,0.146c4.669-2.49,5.133-3.85,3.354-8.787
				c-0.564-1.566-1.266-3.084-1.999-4.852c-1.319,0.605-2.383,1.076-3.433,1.576c-1.062,0.506-2.112,1.039-3.132,1.543
				c-3.945-4.281-4.171-6.094-1.127-10.705c2.807-4.254,6.43-7.609,11.415-9.1c0.844-0.254,2.571,0.139,2.874,0.742
				C554.946,546.343,558.335,552.147,558.536,558.884z"/>
			<path fill="#FFFFFF" d="M455.96,225.493c10.007-0.376,17.142-5.838,21.092-15.022c3.704-8.612,1.996-16.466-4.082-23.506
				c-1.287-1.49-2.297-3.219-3.445-4.854c2.096-1.255,4.008-2.4,5.937-3.556c-5.061-9.218-10.209-17.946-17.518-25.136
				c-2.258-2.221-4.917-4.03-7.235-6.194c-1.883-1.758-3.441-3.793-2.16-6.822c15.49,5.988,21.58,20.144,29.743,32.573
				c-0.763-3.559-1.672-7.022-3.195-10.191c-4.614-9.591-10.907-17.989-18.696-25.271c-3.244-3.033-6.337-6.227-9.442-9.292
				c0.505-0.9,0.75-1.446,1.096-1.919c0.34-0.465,0.782-0.855,1.241-1.345c14.796,8.754,22.756,22.766,30.004,37.502
				c0.577-7.745-2.163-14.542-6.178-20.925c-5.923-9.417-14.841-15.665-23.58-22.093c-2.514-1.849-2.502-3.119,0.014-5.03
				c2.768-2.103,5.724-4,8.27-6.342c5.052-4.647,6.129-9.909,3.661-15.929c-2.462-6.005-7.849-9.951-14.173-9.344
				c-6.59,0.633-13.158,1.838-19.627,3.282c-6.601,1.474-12.32,1.281-16.848-4.695c-1.829-2.414-4.309-4.425-6.763-6.257
				c-5.689-4.246-11.931-7.563-19.277-6.097c-4.423,0.883-8.625,2.894-12.912,4.44c-6.489,2.34-12.781,2.384-18.938-1.178
				c-2.392-1.383-4.95-2.524-7.531-3.518c-3.364-1.296-6.705-1.19-9.403,1.537c-4.121,4.163-8.389,8.224-12.104,12.732
				c-5.987,7.265-12.419,13.677-21.917,16.129c-1.333,0.344-2.847,1.258-3.604,2.368c-13.123,19.232-21.781,40.259-24.275,63.501
				c-2.016,18.789-0.18,37.301,5.904,55.273c7.49,22.119,19.67,40.908,39.083,54.491c17.308,12.111,36.089,19.497,57.649,17.997
				c1.202-0.084,2.415-0.011,4.456-0.011c-6.767,5.035-14.17,5.071-21.014,7.073c1.136,0.613,2.255,0.93,3.385,1.203
				c6.197,1.501,12.416,1.388,18.591-0.018c13.334-3.032,25.401-8.492,34.986-18.604c3.549-3.744,5.434-8.341,7.399-13.801
				c-7.033,4.012-13.723,6.639-21.499,5.695c1.305-1.741,2.754-3.267,4.397-4.542c4.769-3.699,9.779-7.104,14.396-10.978
				c9.423-7.908,17.477-17.119,24.224-27.386C448.537,227.681,451.082,225.677,455.96,225.493z M451.32,156.82
				c7.657,4.383,12.804,10.708,13.938,19.939c-1.399-1.593-2.692-3.295-4.219-4.756c-3.995-3.828-8.143-7.499-12.104-11.361
				c-0.715-0.697-0.833-2.005-1.228-3.031C448.931,157.313,450.527,156.366,451.32,156.82z M447.042,171.986
				c0.814-0.666,2.077-1.229,3.085-1.129c3.65,0.364,8.683,7.176,7.802,10.736c-0.347,1.4-1.786,2.529-2.867,3.968
				c-2.936-4.086-5.527-7.586-7.964-11.192C446.702,173.784,446.648,172.308,447.042,171.986z M323.517,168.952
				c3.925-4.616,8.169-9.006,11.667-13.926c4.069-5.726,7.416-11.961,11.212-17.888c1.349-2.106,3.099-3.955,4.666-5.921
				c0.314,0.17,0.63,0.341,0.945,0.512c-0.422,5.914-2.595,11.333-5.306,16.492c-3.598,6.85-7.387,13.61-11.378,20.238
				c-2.275,3.781-1.801,7.167,0.339,10.604c1.258,2.021,2.734,3.906,4.031,5.905c0.896,1.38,1.652,2.851,2.754,4.771
				c-2.629,0.603-4.832,1.569-6.978,1.456c-1.728-0.091-4-1.049-4.96-2.389c-3.054-4.262-5.648-8.858-8.337-13.375
				C320.689,172.936,321.88,170.876,323.517,168.952z M316.04,99.232c1.201,1.524,2.444,3.105,3.354,4.259
				c-6.395,2.456-12.629,4.851-18.541,7.122C302.817,106.274,306.792,103.198,316.04,99.232z M306.078,130.489
				c2.108-1.575,4.74-1.464,6.124,1.026c1.622,2.919,2.422,6.296,3.58,9.475c-0.261,0.092-0.521,0.183-0.779,0.275
				c-0.033,4.576-0.855,8.905-4.147,12.362c-2.469,2.593-5.079,2.476-7.341-0.216C298.973,148.004,300.463,134.685,306.078,130.489z
				 M345.559,250.589c-6.215,3.531-17.255,0.533-21.143-5.436c-0.096-0.147-0.059-0.382-0.137-0.995
				c6.727-0.501,13.241-1.06,19.766-1.43c2.234-0.127,3.754,1.494,3.688,3.498C347.685,247.74,346.766,249.903,345.559,250.589z
				 M402.191,209.972c-1.303,6.961-3.028,13.844-4.598,20.718c-2.798-0.191-3.55-1.333-3.359-3.379
				c0.128-1.382,0.034-2.784,0.077-4.176c0.126-4.098-2.235-5.593-5.943-3.566c-5.316,2.905-10.516,6.023-15.812,8.964
				c-8.381,4.653-17.266,8.068-26.734,9.562c-8.375,1.322-16.454-0.578-24.003-4.124c-6.179-2.902-12.115-6.351-18.021-9.796
				c-4.439-2.591-4.835-2.579-6.107,2.29c-0.195,0.75-0.334,1.516-0.712,3.251c-2.536-4.137-4.796-7.531-6.758-11.089
				c-4.148-7.525-3.681-10.276,2.396-16.453c1.732-1.76,3.446-3.539,5.561-5.713c0.39,2.727,0.548,4.953,1.082,7.084
				c0.239,0.956,1.058,2.202,1.903,2.504c15.885,5.674,32.09,8.287,48.799,4.21c7.906-1.929,15.726-4.213,23.582-6.345
				c0.574-0.156,1.136-0.363,1.691-0.578c5.635-2.18,5.879-2.683,4.391-8.583c-0.456-1.809-0.823-3.639-1.23-5.459
				c0.27-0.216,0.54-0.432,0.81-0.648c7.073,5.597,14.214,11.111,21.149,16.872C401.475,206.449,402.444,208.618,402.191,209.972z
				 M406.5,157.565c-5.291-3.295-10.388-6.977-15.931-9.776c-5.366-2.71-11.191-4.512-16.815-6.712
				c0.017-0.516,0.033-1.031,0.05-1.546c3.446-1.258,6.824-2.78,10.358-3.708c4.568-1.201,9.216-1.273,13.752,0.548
				C406.244,139.715,410.108,149.202,406.5,157.565z M412.361,123.175c-3.481-3.728-6.633-7.857-10.538-11.07
				c-3.904-3.211-8.563-5.505-12.923-8.22c1.736-1.433,3.483-3.046,5.422-4.382c0.694-0.478,2.177-0.735,2.749-0.325
				c5.898,4.237,11.577,8.764,14.345,15.814c0.938,2.389,1.427,4.954,2.121,7.439C413.144,122.679,412.752,122.927,412.361,123.175z
				"/>
			<path fill="#FFFFFF" d="M266.065,462.181c0.043,0.453,0.172,0.926,0.355,1.398l-1.113-9.574
				C265.559,456.729,265.809,459.456,266.065,462.181z"/>
			<path fill="#FFFFFF" d="M297.516,93.898c7.348-0.739,12.645-4.816,17.373-10.019c4.68-5.15,9.208-10.463,14.188-15.308
				c4.492-4.369,9.81-7.872,16.502-6.211c3.387,0.841,6.674,2.609,9.625,4.54c4.295,2.81,8.24,3.023,12.672,0.395
				c5.979-3.545,12.146-6.77,18.221-10.154c3.89-2.167,7.721-2.302,11.52,0.2c4.402,2.9,8.686,5.885,11.73,10.376
				c1.833,2.703,3.877,5.321,6.161,7.65c7.842,8.001,5.161,7.77,17.248,3.969c4.254-1.338,8.366-3.216,12.688-4.234
				c11.873-2.797,21.734,2.413,26.126,13.665c1.842,4.718,2.974,9.726-0.139,14.314c-2.149,3.17-4.817,6.027-7.495,8.79
				c-2.032,2.098-4.445,3.828-6.953,5.944c12.784,10.528,24.256,21.751,27.38,39.576c4.048-9.249,6.329-18.058,8.037-27.043
				c3.004-15.794,2.858-31.282-4.565-46.024c-4.347-8.633-8.664-17.449-16.466-23.507c-5.779-4.487-10.388-9.674-14.068-15.937
				c-5.246-8.925-12.493-15.442-23.059-17.379c-9.948-1.824-18.58-6.191-26.089-12.944c-1.608-1.447-3.542-2.585-5.453-3.63
				c-4.198-2.296-8.58-3.565-12.809-0.224c-1.836,1.451-3.374,3.338-4.835,5.194c-4.061,5.154-7.938,10.454-12.027,15.584
				c-2.544,3.191-5.852,4.282-9.847,2.803c-2.234-0.827-4.553-1.43-6.778-2.278c-6.657-2.538-12.874-2.008-18.531,2.536
				c-2.555,2.052-5.109,4.115-7.533,6.317c-4.852,4.409-9.347,9.252-14.47,13.31c-8.911,7.058-22.987,4.63-27.904-4.513
				c-0.96-1.785-1.379-3.86-2.203-6.254c-1.339,1.639-2.659,2.967-3.647,4.508c-7.67,11.966-6.08,30.614,3.472,41.206
				C288.77,92.65,292.618,94.391,297.516,93.898z"/>
			<path fill="#FFFFFF" d="M121.648,327.62c1.022-4.664,1.481-9.452,2.293-14.822c-2.739,1.369-4.695,2.348-6.652,3.326
				c1.721-4.612,3.969-8.664,6.164-12.743c3.132-5.819,5.653-11.878,5.599-18.611c-0.13-16.124-8.04-28.814-18.581-40.042
				c-4.529-4.825-10.209-8.548-15.018-13.137c-7.393-7.056-9.674-16.15-8.479-25.957c0.827-6.785,2.788-13.424,4.049-20.165
				c0.747-3.991,1.416-8.042,1.574-12.087c0.165-4.207-2.275-7.699-5.468-8.333c-11.09-2.201-21.298-0.086-28.744,8.667
				c-8.59,10.099-9.31,22.397-7.324,34.992c1.575,9.992,6.131,18.804,11.032,27.456c0.522,0.921,1.616,1.667,2.612,2.149
				c9.543,4.628,19.353,8.761,28.623,13.878c8.763,4.836,11.231,13.73,12.17,23.021c0.724,7.16-3.146,12.026-8.54,16.005
				c-0.061,0.045-0.062,0.172-0.127,0.374c2.015,2.352,4.175,4.672,6.108,7.168c6.519,8.415,6.578,15.554,0.326,24.196
				c-0.116,0.162-0.221,0.338-0.364,0.473c-2.184,2.039-2.291,3.836-0.542,6.586c6.226,9.789,1.609,18.602-6.523,22.42
				c-4.671,2.193-9.951,3.693-15.082,4.174c-8.888,0.832-17.874,0.613-26.817,0.873c-2.108,0.061-4.211,0.271-6.317,0.412
				c-0.049,0.277-0.098,0.555-0.147,0.832c2.149,0.904,4.228,2.068,6.459,2.666c8.526,2.281,17.266,2.9,26.024,2.291
				c8.704-0.605,17.202-2.439,24.395-7.756C113.899,348.872,119.152,339.007,121.648,327.62z"/>
			<path fill="#FFFFFF" d="M549.142,539.747c-4.985,1.49-8.608,4.846-11.415,9.1c-3.044,4.611-2.818,6.424,1.127,10.705
				c1.02-0.504,2.069-1.037,3.132-1.543c1.05-0.5,2.113-0.971,3.433-1.576c0.733,1.768,1.435,3.285,1.999,4.852
				c1.779,4.938,1.315,6.297-3.354,8.787c-0.8,0.426-2.442,0.396-3.058-0.146c-3.266-2.879-6.392-5.926-9.414-9.061
				c-0.751-0.779-1.116-2.066-1.348-3.186c-1.288-6.23,1.216-11.498,4.526-16.453c1.751-2.621,3.826-5.025,5.903-7.719
				c-8.591-2.262-17.921-1.768-25.076-7.281c-6.951-5.355-13.209-11.611-20.006-17.684c-1.406,2.236-2.995,4.633-4.453,7.107
				c-3.167,5.367-5.767,11.018-5.534,17.387c0.492,13.457,3.75,26.307,8.854,38.754c1.747,4.264,4.725,6.398,9.089,6.982
				c1.676,0.225,3.351,0.525,5.035,0.607c10.414,0.498,20.828,1.047,31.25,1.344c3.122,0.088,7.336,0.59,9.201-1.117
				c5.894-5.395,9.751-12.361,9.502-20.723c-0.2-6.736-3.59-12.541-6.52-18.395C551.713,539.886,549.986,539.493,549.142,539.747z"
				/>
			<path fill="#FFFFFF" d="M22.622,280.627c5.389-0.794,10.75-1.777,16.138-2.584c11.195-1.679,22.359-1.991,33.285,1.598
				c4.795,1.575,9.417,3.687,14.23,5.195c4.995,1.566,7.848,0,9.598-4.997c0.643-1.836,0.744-3.863,1.092-5.803
				c-0.035-5.59-1.373-10.628-5.817-14.229c-8.951-7.25-19.085-12.189-30.49-14.05c-10.098-1.648-20.234-0.638-30.286,0.714
				c-8.879,1.194-15.084,7.115-16.215,15.058c-1.014,7.131,2.281,12.903,6.163,18.408C20.691,280.465,21.884,280.736,22.622,280.627
				z"/>
			<path fill="#FFFFFF" d="M29.734,316.542c16.591-3.989,32.947-1.996,49.259,1.967c5.162,1.255,10.473,1.944,15.749,2.643
				c1.051,0.139,2.699-0.545,3.312-1.396c3.718-5.169,3.608-12.573-0.406-17.544c-1.841-2.28-4.093-4.418-6.568-5.965
				c-12.489-7.806-26.251-11.442-40.905-11.919c-8.475-0.237-16.918,0.089-25.053,2.578c-2.028,0.62-4.528,2.456-5.188,4.311
				c-2.769,7.779-2.339,15.479,2.942,22.265C24.493,315.557,26.497,317.32,29.734,316.542z"/>
			<path fill="#FFFFFF" d="M81.997,350.099c4.324-0.748,8.001-2.963,10.749-6.445c3.869-4.902,3.067-8.939-2.355-11.951
				c-1.811-1.006-3.742-1.816-5.667-2.596c-9.445-3.824-19.356-5.861-29.41-7.018c-5.873-0.674-11.926-1.221-17.751-0.551
				c-9.286,1.066-13.582,7.771-11.076,16.543c1.456,5.096,5.209,7.791,9.757,9.68c9.094,3.775,18.734,3.922,28.437,4.736
				C70.456,351.716,76.259,351.093,81.997,350.099z"/>
			<path fill="#FFFFFF" d="M489.907,497.485c-0.495-1.436-0.538-3.428,0.069-4.779c4.988-11.09,9.996-22.18,15.354-33.094
				c6.593-13.426,13.589-26.648,22.49-38.752c1.522-2.07,1.067-3.098-1.359-3.854c-4.623-1.441-9.218-2.971-13.823-4.469
				c-4.098-1.332-8.193-2.672-12.642-4.121c-7.311,32.367-16.978,64.031-12.983,97.668
				C488.265,503.327,491.232,501.323,489.907,497.485z"/>
			<path fill="#FFFFFF" d="M136.643,284.547c-0.882,6.966-2.779,13.591-6.343,19.704c-0.452,0.777-0.614,1.923-0.46,2.821
				c1.153,6.738,0.144,13.251-1.844,19.676c-5.509,17.807-14.15,33.205-32.684,41.861c3.096,0.535,5.528,0.908,7.94,1.383
				c2.424,0.479,4.519,0.205,6.699-1.277c22.934-15.596,36.106-36.047,32.134-64.858c-0.938-6.799-2.866-13.461-4.339-20.187
				C136.843,284.059,136.675,284.295,136.643,284.547z"/>
			<path fill="#FFFFFF" d="M291.201,99.148c-2.114-1.552-4.246-3.145-6.407-4.697c-5.434-3.903-7.137-3.314-9.153,3.176
				c-0.231,0.746-0.332,1.543-0.409,2.326c-0.656,6.726,1.865,12.561,5.012,18.39C283.924,111.896,287.487,105.655,291.201,99.148z"
				/>
			<path d="M400.354,205.518c-6.936-5.761-14.076-11.275-21.149-16.872c-0.27,0.216-0.54,0.432-0.81,0.648
				c0.407,1.82,0.774,3.65,1.23,5.459c1.488,5.9,1.244,6.403-4.391,8.583c-0.556,0.215-1.117,0.422-1.691,0.578
				c-7.856,2.132-15.676,4.416-23.582,6.345c-16.709,4.077-32.914,1.464-48.799-4.21c-0.846-0.302-1.664-1.548-1.903-2.504
				c-0.534-2.132-0.692-4.357-1.082-7.084c-2.114,2.174-3.828,3.953-5.561,5.713c-6.077,6.177-6.545,8.928-2.396,16.453
				c1.962,3.558,4.222,6.952,6.758,11.089c0.378-1.736,0.517-2.501,0.712-3.251c1.272-4.869,1.668-4.88,6.107-2.29
				c5.905,3.445,11.842,6.894,18.021,9.796c7.549,3.546,15.628,5.446,24.003,4.124c9.469-1.494,18.354-4.91,26.734-9.562
				c5.297-2.941,10.496-6.059,15.812-8.964c3.708-2.026,6.069-0.531,5.943,3.566c-0.043,1.392,0.051,2.794-0.077,4.176
				c-0.19,2.046,0.562,3.188,3.359,3.379c1.569-6.874,3.295-13.756,4.598-20.718C402.444,208.618,401.475,206.449,400.354,205.518z
				 M383.059,216.891c-9.361,4.028-18.638,8.516-28.38,11.335c-12.089,3.498-24.364,2.281-36.12-2.565
				c-5.956-2.455-11.897-4.944-17.836-7.441c-0.726-0.305-1.773-0.599-2.006-1.17c-0.596-1.458-1.144-3.102-0.992-4.599
				c0.048-0.471,2.445-1.172,3.646-0.985c8.801,1.376,17.536,3.199,26.357,4.407c12.93,1.771,25.496-0.522,37.854-4.261
				c5.033-1.523,10.075-3.021,15.102-4.567c4.316-1.328,6.792,1.619,10.47,4.459C388.094,213.58,385.785,215.718,383.059,216.891z"
				/>
			<path d="M330.51,188.806c0.96,1.34,3.232,2.298,4.96,2.389c2.146,0.114,4.349-0.853,6.978-1.456
				c-1.102-1.921-1.857-3.391-2.754-4.771c-1.297-1.999-2.773-3.884-4.031-5.905c-2.14-3.438-2.614-6.824-0.339-10.604
				c3.991-6.628,7.78-13.388,11.378-20.238c2.711-5.159,4.884-10.578,5.306-16.492c-0.315-0.171-0.631-0.341-0.945-0.512
				c-1.567,1.966-3.317,3.815-4.666,5.921c-3.796,5.927-7.143,12.163-11.212,17.888c-3.498,4.92-7.742,9.311-11.667,13.926
				c-1.637,1.924-2.828,3.984-1.344,6.479C324.862,179.948,327.457,184.543,330.51,188.806z"/>
			<path d="M397.914,136.37c-4.536-1.821-9.184-1.749-13.752-0.548c-3.534,0.928-6.912,2.45-10.358,3.708
				c-0.017,0.516-0.033,1.031-0.05,1.546c5.624,2.201,11.449,4.002,16.815,6.712c5.543,2.799,10.64,6.481,15.931,9.776
				C410.108,149.202,406.244,139.715,397.914,136.37z"/>
			<path d="M310.855,153.626c3.292-3.458,4.114-7.787,4.147-12.362c0.259-0.092,0.519-0.183,0.779-0.275
				c-1.158-3.178-1.958-6.555-3.58-9.475c-1.384-2.49-4.016-2.601-6.124-1.026c-5.614,4.196-7.104,17.516-2.563,22.921
				C305.776,156.103,308.386,156.219,310.855,153.626z"/>
			<path d="M397.071,99.178c-0.572-0.411-2.055-0.153-2.749,0.325c-1.938,1.335-3.686,2.949-5.422,4.382
				c4.359,2.715,9.019,5.009,12.923,8.22c3.905,3.212,7.057,7.342,10.538,11.07c0.392-0.248,0.783-0.496,1.176-0.743
				c-0.694-2.485-1.183-5.05-2.121-7.439C408.648,107.942,402.969,103.415,397.071,99.178z"/>
			<path d="M344.045,242.729c-6.524,0.371-13.039,0.929-19.766,1.43c0.078,0.613,0.041,0.847,0.137,0.995
				c3.888,5.968,14.928,8.966,21.143,5.436c1.207-0.686,2.126-2.849,2.175-4.363C347.799,244.222,346.28,242.602,344.045,242.729z"
				/>
			<path d="M461.04,172.002c1.526,1.461,2.819,3.164,4.219,4.756c-1.135-9.231-6.281-15.556-13.938-19.939
				c-0.793-0.454-2.389,0.493-3.611,0.791c0.395,1.026,0.513,2.333,1.228,3.031C452.897,164.503,457.044,168.175,461.04,172.002z"/>
			<path d="M455.061,185.562c1.081-1.439,2.521-2.568,2.867-3.968c0.881-3.56-4.151-10.373-7.802-10.736
				c-1.008-0.1-2.271,0.463-3.085,1.129c-0.394,0.322-0.34,1.798,0.056,2.384C449.534,177.976,452.125,181.476,455.061,185.562z"/>
			<path d="M316.04,99.232c-9.247,3.966-13.223,7.042-15.188,11.381c5.912-2.271,12.146-4.666,18.541-7.122
				C318.484,102.337,317.241,100.756,316.04,99.232z"/>
			<path fill="#FFFFFF" d="M380.685,207.044c-5.026,1.547-10.068,3.044-15.102,4.567c-12.358,3.739-24.925,6.032-37.854,4.261
				c-8.821-1.208-17.557-3.03-26.357-4.407c-1.201-0.188-3.599,0.514-3.646,0.985c-0.151,1.497,0.396,3.142,0.992,4.599
				c0.232,0.571,1.28,0.865,2.006,1.17c5.938,2.497,11.88,4.986,17.836,7.441c11.756,4.846,24.031,6.063,36.12,2.565
				c9.742-2.819,19.019-7.307,28.38-11.335c2.726-1.173,5.035-3.312,8.096-5.387C387.477,208.664,385.001,205.716,380.685,207.044z"
				/>
			<path d="M348.81,567.685c-25.06-2.426-47.724-12.861-71.228-22.023c0,0,130.045,72.344,135.954,58.344
				c2.52-5.969,6.058-20.18,9.547-36.234c0.021-0.861,0.044-1.715,0.066-2.578C398.586,568.677,373.74,570.099,348.81,567.685z"/>
			<path d="M265.288,453.839l0.02,0.166c-0.006-0.064-0.012-0.127-0.018-0.191C265.288,453.829,265.288,453.839,265.288,453.839z"/>
			<path d="M396.843,559.47c-13.058,0.902-26.213,1.064-39.3,0.68c-12.809-0.377-25.402-2.91-37.795-6.254
				c-14.571-3.932-28.363-9.701-41.389-17.336c-1.267-0.742-2.029-1.553-2.436-2.789l1.658,11.891
				c23.504,9.162,46.168,19.598,71.228,22.023c24.93,2.414,49.776,0.992,74.34-2.492c-0.022,0.863-0.045,1.717-0.066,2.578
				c0.856-3.941,1.71-7.994,2.545-12.064C416.083,557.347,406.478,558.806,396.843,559.47z"/>
			<g id="ywppkt.tif">
				<g>
					<path fill-rule="evenodd" clip-rule="evenodd" d="M419.766,15.173c7.206-1.141,14.263-2.538,21.386-3.326
						c13.063-1.446,23.784,4.047,33.508,12.086c10.479,8.664,19.214,18.709,24.858,31.235c0.521,1.155,1.492,2.121,2.317,3.124
						c6.926,8.413,12.24,17.759,16.097,27.932c2.256,5.95,0.96,11.81-0.62,17.66c-3.343,12.377-12.014,30.313-18.811,38.592
						c-0.965-0.428-2.028-0.878-3.073-1.367c-19.052-8.92-37.941-18.212-57.203-26.654c-15.606-6.841-32.356-9.595-49.274-10.884
						c-24.847-1.896-49.087-5.999-71.62-17.444c-5.518-2.803-11.414-4.895-17.239-7.032c-1.585-0.581-3.681-0.582-5.312-0.088
						c-11.487,3.476-19.966,11-26.56,20.727c-1.69,2.493-3.305,3.04-6.112,2.422c-7.872-1.73-15.819-3.119-23.714-4.752
						c-7.387-1.529-14.18-4.156-15.374-12.833c-1.165-8.462,2.977-14.836,10.06-18.7c16.127-8.799,33.134-13.363,51.594-8.396
						c0.193,0.052,0.423-0.035-0.029,0.012c-1.586-4.721-4.158-9.464-4.665-14.418c-1.739-17.026,6.21-29.212,22.553-34.569
						c14.968-4.905,30.466-7.639,46.202-8.425c11.182-0.558,21.85,2.146,32.088,6.641c1.089,0.478,2.761,0.545,3.809,0.053
						C396.766,1.078,411.561,4.625,419.766,15.173z M228.168,79.741c14.896-9.309,31.134-12.065,48.061-11.021
						c14.749,0.91,28.717,5.37,41.902,11.842c20.883,10.25,42.911,15.406,66.028,17.094c11.482,0.838,23,2.5,34.248,4.951
						c17.683,3.855,33.666,12.455,50.089,19.726c9.655,4.275,19.136,8.941,28.953,13.552c0.207-0.344,0.399-0.612,0.539-0.904
						c4.562-9.532,9.427-18.935,13.576-28.643c3.107-7.271,4.136-14.923,0.13-22.438c-2.312-4.337-4.523-8.727-6.78-13.094
						c-0.265,0.115-0.529,0.23-0.795,0.346c0.165,4.908,0.277,9.807-2.401,14.305c-0.695-1.427-0.958-2.841-1.027-4.264
						c-0.407-8.261-2.407-16.11-5.794-23.65c-6.288-14.006-17.049-24.084-28.918-33.221c-8.888-6.842-19.029-8.445-29.753-6.667
						c-9.873,1.636-19.64,3.895-29.491,5.679c-9.084,1.646-18.195,2.233-27.154-0.835c-0.987-0.338-1.891-0.918-2.832-1.386
						c0.088-0.279,0.176-0.557,0.264-0.836c4.893,0,9.785,0,14.889,0c-0.299-0.586-0.344-0.831-0.49-0.94
						C376.325,8.053,359.316,4.026,340.784,6.275c-7.773,0.943-15.508,2.285-23.203,3.745c-4.801,0.911-9.631,2.007-14.214,3.664
						c-17.808,6.438-24.042,25.026-14.163,41.433c1.533,2.547,3.441,4.1,6.344,5.143c15.578,5.593,31.02,11.567,46.578,17.213
						c11.861,4.303,23.805,8.383,35.77,12.391c2.236,0.75,4.748,0.684,7.132,0.994c-0.019,0.27-0.038,0.539-0.058,0.808
						c-0.916,0.08-1.834,0.166-2.75,0.238c-11.605,0.912-22.439-2.196-33.178-6.123c-20.759-7.592-41.48-15.308-62.408-22.411
						c-17.546-5.955-34.227-1.807-50.168,6.269C232.426,71.685,229.372,74.93,228.168,79.741z M413.75,16.575
						c-7.571-6.364-15.408-8.641-24.826-6.28c3.885,2.893,7.404,5.587,11.025,8.141c0.607,0.429,1.68,0.455,2.479,0.317
						C406.002,18.138,409.556,17.396,413.75,16.575z"/>
					<path fill-rule="evenodd" clip-rule="evenodd" fill="#FFFFFF" d="M228.168,79.741c1.203-4.811,4.258-8.057,8.297-10.103
						c15.941-8.076,32.622-12.223,50.168-6.269c20.928,7.103,41.649,14.818,62.408,22.411c10.738,3.927,21.572,7.035,33.178,6.123
						c0.916-0.072,1.834-0.158,2.75-0.238c0.02-0.269,0.039-0.539,0.058-0.808c-2.384-0.311-4.896-0.244-7.132-0.994
						c-11.965-4.007-23.908-8.087-35.77-12.391c-15.559-5.646-31-11.621-46.578-17.213c-2.902-1.042-4.811-2.595-6.344-5.143
						c-9.879-16.407-3.645-34.994,14.163-41.433c4.583-1.657,9.413-2.753,14.214-3.664c7.695-1.46,15.43-2.802,23.203-3.745
						c18.532-2.249,35.541,1.778,50.627,13.063c0.146,0.109,0.191,0.354,0.49,0.94c-5.104,0-9.996,0-14.889,0
						c-0.088,0.279-0.176,0.557-0.264,0.836c0.941,0.468,1.845,1.048,2.832,1.386c8.959,3.068,18.07,2.481,27.154,0.835
						c9.852-1.785,19.618-4.043,29.491-5.679c10.724-1.777,20.865-0.175,29.753,6.667c11.869,9.136,22.63,19.215,28.918,33.221
						c3.387,7.54,5.387,15.39,5.794,23.65c0.069,1.423,0.332,2.837,1.027,4.264c2.679-4.498,2.566-9.396,2.401-14.305
						c0.266-0.116,0.53-0.231,0.795-0.346c2.257,4.367,4.468,8.757,6.78,13.094c4.006,7.515,2.978,15.167-0.13,22.438
						c-4.149,9.708-9.014,19.111-13.576,28.643c-0.14,0.292-0.332,0.56-0.539,0.904c-9.817-4.611-19.298-9.277-28.953-13.552
						c-16.423-7.271-32.406-15.871-50.089-19.726c-11.248-2.452-22.766-4.113-34.248-4.951
						c-23.117-1.688-45.146-6.844-66.028-17.094c-13.186-6.472-27.153-10.933-41.902-11.842
						C259.302,67.676,243.065,70.433,228.168,79.741z"/>
					<path fill-rule="evenodd" clip-rule="evenodd" fill="#FFFFFF" d="M413.75,16.575c-4.194,0.82-7.748,1.562-11.322,2.178
						c-0.799,0.138-1.871,0.112-2.479-0.317c-3.621-2.554-7.141-5.248-11.025-8.141C398.342,7.934,406.179,10.211,413.75,16.575z"/>
				</g>
			</g>
		</g>
		<text transform="matrix(0.9976 0.0687 -0.0687 0.9976 277.1841 403.1006)" font-family="'Lobster-Regular'" font-size="90.2577">P</text>
		<text transform="matrix(0.9617 0.2741 -0.2741 0.9617 336.73 70.7612)" font-family="'Lobster-Regular'" font-size="70.2327">P</text>
		<text transform="matrix(1 0 0 1 311.0708 401.1299)" font-family="'Lobster-Regular'" font-size="41.0037">aperboy</text>
	</g>
</g>
</svg>
